<?xml version="1.0" standalone="no"?>
<!DOCTYPE svg PUBLIC "-//W3C//DTD SVG 20010904//EN"
 "http://www.w3.org/TR/2001/REC-SVG-20010904/DTD/svg10.dtd">
<svg version="1.0" xmlns="http://www.w3.org/2000/svg"
 width="400.000000pt" height="400.000000pt" viewBox="0 0 400.000000 400.000000"
 preserveAspectRatio="xMidYMid meet">
<metadata>
Created by potrace 1.11, written by Peter Selinger 2001-2013
</metadata>
<g transform="translate(0.000000,400.000000) scale(0.100000,-0.100000)"
fill="#000000" stroke="none">
<path d="M0 3596 l0 -404 83 -6 c45 -3 120 -8 167 -11 228 -13 297 -18 445
-31 197 -17 243 -22 325 -34 36 -5 106 -14 155 -20 50 -7 130 -20 178 -31 49
-10 103 -19 120 -20 18 0 59 -6 92 -14 50 -11 54 -13 25 -14 -26 -1 -31 -4
-20 -11 8 -5 25 -10 38 -10 12 0 22 -4 22 -8 0 -7 54 -28 95 -37 5 -1 10 -8
11 -16 0 -8 2 -22 2 -31 1 -12 10 -18 26 -18 17 0 27 -8 34 -27 15 -40 13 -90
-4 -97 -8 -3 -14 -19 -14 -41 0 -21 -6 -38 -14 -41 -8 -3 -12 -13 -9 -25 3
-10 0 -19 -6 -19 -6 0 -11 -11 -11 -25 0 -14 -5 -25 -10 -25 -21 0 -43 -88
-42 -162 1 -21 -3 -38 -7 -38 -4 0 -8 -6 -9 -12 -1 -7 -4 -25 -8 -40 -8 -36 2
-64 19 -50 8 7 18 6 31 -3 13 -10 39 -12 95 -8 98 7 116 23 28 24 -88 2 -90 2
-94 15 -8 25 102 33 133 9 32 -24 58 -18 78 19 22 42 19 63 -17 90 -21 15 -30
18 -36 8 -8 -13 -127 -6 -137 9 -2 4 -11 6 -19 2 -20 -7 -19 4 6 43 15 26 28
34 49 34 48 0 90 12 90 25 0 16 -60 55 -84 55 -22 0 -21 6 16 64 52 82 97 139
126 158 33 22 94 23 125 4 17 -11 32 -12 67 -4 100 22 120 21 194 -7 99 -39
105 -45 85 -100 -15 -42 -15 -45 3 -65 11 -11 24 -35 30 -53 6 -17 19 -41 28
-52 10 -11 20 -32 24 -47 l6 -26 -34 33 c-25 24 -48 36 -81 40 -57 9 -177 -6
-182 -22 -8 -23 58 -55 100 -48 22 3 51 -1 71 -9 47 -19 116 -84 116 -108 0
-18 -4 -19 -42 -12 -24 4 -63 7 -88 6 -26 -1 -58 5 -76 14 -28 16 -33 15 -68
-1 -41 -20 -56 -14 -39 14 28 44 -30 41 -89 -4 -74 -58 -110 -111 -120 -174
-5 -32 -18 -65 -29 -77 -11 -12 -17 -28 -14 -37 13 -33 -58 -49 -99 -22 -21
14 -23 13 -39 -20 -10 -22 -26 -37 -42 -41 -21 -5 -25 -11 -21 -29 5 -19 2
-22 -19 -18 -23 5 -23 6 26 68 77 98 66 110 -37 40 -36 -25 -71 -45 -79 -45
-7 0 -16 12 -20 28 -5 17 -9 22 -12 12 -2 -8 -8 -24 -13 -35 -19 -45 -32 -97
-26 -110 3 -9 14 -13 28 -11 13 3 26 5 30 5 3 1 8 9 10 19 3 12 11 4 28 -28
12 -25 24 -54 25 -65 5 -46 7 -48 16 -17 20 69 53 1 39 -78 -8 -46 10 -76 39
-64 9 3 24 8 33 11 15 5 16 7 3 20 -17 16 -12 33 9 33 8 0 33 -9 57 -19 24
-10 70 -22 102 -26 54 -6 71 -25 24 -25 -20 -1 -19 -2 6 -16 21 -11 27 -21 24
-35 -3 -10 -1 -19 5 -19 5 0 8 -12 6 -27 -3 -24 -7 -28 -31 -25 -28 3 -87 -17
-87 -30 0 -3 25 -5 55 -3 37 2 58 -2 66 -11 13 -16 49 -19 49 -5 0 5 23 23 50
40 28 17 48 36 45 42 -4 5 -2 15 3 22 5 7 12 24 15 38 4 15 24 38 49 55 51 34
67 53 68 77 0 24 27 21 35 -4 4 -12 1 -39 -6 -61 -9 -29 -10 -41 -1 -50 17
-17 16 -59 -2 -52 -8 3 -25 -13 -44 -43 -53 -81 -97 -123 -131 -123 -16 0 -33
-4 -36 -10 -3 -5 -17 -10 -30 -10 -13 0 -27 -5 -30 -10 -11 -17 -37 -11 -42
10 -3 11 -9 20 -14 20 -16 0 -40 -47 -33 -65 6 -15 3 -17 -18 -12 -15 4 -33
10 -42 13 -10 4 -17 -2 -22 -20 -7 -31 -34 -34 -41 -6 -4 15 -11 19 -24 15
-50 -16 -121 29 -151 95 -7 16 -16 30 -20 30 -5 0 -8 8 -8 19 0 10 -7 32 -15
47 -8 16 -15 39 -15 50 0 12 -11 32 -25 45 -14 14 -25 35 -25 51 0 15 -5 30
-11 34 -7 4 -9 -10 -4 -47 4 -30 9 -56 11 -58 2 -2 -1 -12 -7 -22 -11 -21 -76
-54 -126 -64 -35 -7 -72 -44 -92 -92 -8 -19 -28 -37 -57 -51 -27 -13 -53 -36
-65 -57 -22 -37 -91 -84 -154 -105 -22 -7 -67 -26 -101 -41 -34 -16 -66 -29
-72 -29 -6 0 -31 -9 -54 -19 -24 -11 -65 -29 -93 -41 -36 -17 -61 -37 -89 -77
-22 -29 -54 -63 -72 -74 -71 -43 -224 -252 -336 -458 l-17 -31 -93 -2 c-51 0
-105 0 -120 1 l-28 2 0 -235 0 -236 759 0 758 0 7 70 c4 39 7 130 6 203 -2
117 3 302 14 537 2 41 7 76 10 78 16 6 27 0 40 -26 12 -23 12 -30 0 -47 -10
-14 -14 -52 -14 -139 0 -133 -16 -528 -25 -619 l-6 -57 236 0 c129 0 235 4
235 8 0 42 -88 259 -155 385 -21 38 -34 71 -30 75 4 4 12 -1 19 -11 7 -9 18
-17 24 -17 6 0 23 -17 38 -37 22 -32 25 -34 21 -13 -3 14 -13 75 -21 135 -20
137 -52 272 -82 348 -13 32 -24 67 -24 78 0 11 -8 36 -19 57 -24 47 -63 180
-58 195 2 6 17 -8 33 -33 16 -25 35 -51 41 -58 7 -7 13 -20 13 -28 0 -9 5 -12
12 -8 7 4 8 3 4 -5 -5 -7 13 -49 42 -99 27 -48 57 -101 66 -118 23 -47 140
-94 233 -94 117 0 163 40 367 319 26 36 60 90 74 118 26 53 49 72 37 31 -18
-61 -69 -177 -92 -213 -16 -25 -22 -40 -14 -43 6 -2 11 -10 11 -17 0 -23 -65
-186 -114 -285 -26 -52 -57 -117 -69 -145 -12 -27 -43 -90 -70 -139 -26 -49
-46 -90 -44 -92 2 -2 25 19 51 46 26 28 52 50 57 50 5 0 9 -13 9 -28 0 -15 5
-33 11 -39 13 -13 50 -5 47 11 -2 6 2 13 7 14 6 1 10 -4 10 -10 0 -7 -45 -43
-100 -80 -144 -96 -265 -210 -265 -250 0 -5 148 -8 329 -8 l328 0 5 87 c3 49
2 117 -2 153 -8 82 0 374 11 391 19 31 24 -15 24 -235 1 -127 4 -236 7 -241 3
-6 3 -43 -1 -82 l-7 -73 608 0 608 0 0 2000 0 2000 -2000 0 -2000 0 0 -404z
m2210 -31 c363 -46 610 -121 708 -214 51 -49 40 -86 -38 -126 -28 -14 -50 -23
-50 -21 0 3 -24 -2 -52 -11 -85 -25 -396 -22 -568 6 -231 38 -419 85 -493 124
-156 84 -191 136 -128 190 27 22 118 51 196 60 78 10 322 5 425 -8z m-373
-707 c-3 -8 -6 -5 -6 6 -1 11 2 17 5 13 3 -3 4 -12 1 -19z m-32 -498 c-3 -5
-11 -10 -16 -10 -6 0 -7 5 -4 10 3 6 11 10 16 10 6 0 7 -4 4 -10z m480 -10
c-3 -5 -14 -10 -23 -10 -15 0 -15 2 -2 10 20 13 33 13 25 0z m-138 -102 c-5
-19 -6 -18 112 -60 47 -16 102 -30 123 -30 41 0 59 -15 37 -29 -7 -4 -14 -23
-15 -41 -7 -139 -15 -159 -67 -178 -30 -10 -34 -9 -67 29 -19 22 -45 53 -58
70 -23 30 -42 40 -42 23 0 -5 13 -29 30 -53 35 -52 37 -69 9 -69 -35 0 -63 46
-60 98 2 37 -2 49 -25 73 -33 34 -47 36 -65 9 -8 -10 -27 -22 -42 -26 -24 -6
-28 -4 -25 11 1 10 17 25 34 34 27 14 33 23 38 63 5 38 10 47 29 50 18 2 21 8
19 31 -2 15 2 35 9 43 11 14 14 13 22 -7 4 -13 6 -31 4 -41z m113 37 c0 -8 -7
-15 -15 -15 -16 0 -20 12 -8 23 11 12 23 8 23 -8z m62 -36 c10 -5 18 -19 18
-31 0 -19 -4 -20 -42 -14 -47 8 -108 34 -108 46 0 12 110 11 132 -1z m202 -58
c3 -5 -1 -14 -9 -21 -13 -10 -15 -9 -15 9 0 21 14 28 24 12z m-594 -336 c71
-12 92 -19 96 -30 3 -7 14 -11 25 -8 14 4 19 0 19 -16 0 -20 -19 -28 -33 -15
-3 4 -24 8 -46 9 -33 3 -120 21 -198 41 -7 2 -13 10 -13 18 0 18 43 24 90 13
19 -5 46 -10 60 -12z m500 -174 c0 -16 -7 -34 -14 -41 -8 -6 -20 -27 -26 -46
-12 -35 -30 -46 -30 -19 0 9 11 37 25 63 14 26 25 53 25 59 0 7 5 13 10 13 6
0 10 -13 10 -29z m1041 -606 c-1 -12 -41 -16 -41 -4 0 8 21 18 33 15 5 -1 8
-6 8 -11z m-1631 -562 c-1 -18 -18 -35 -24 -24 -4 6 -4 16 -1 21 7 12 25 13
25 3z"/>
<path d="M1766 3477 l-48 -12 21 -19 c11 -11 21 -16 21 -11 0 4 6 3 13 -2 12
-11 110 -36 272 -72 217 -48 579 -76 665 -52 30 8 38 36 13 49 -41 22 -315 83
-478 106 -188 27 -395 32 -479 13z"/>
<path d="M1386 1683 c10 -40 14 -41 14 -5 0 18 -5 32 -10 32 -6 0 -8 -11 -4
-27z"/>
<path d="M1776 1563 c-4 -9 -5 -16 -4 -17 2 -1 13 -7 26 -14 18 -10 22 -10 22
3 0 8 0 18 1 22 0 4 -8 10 -19 14 -14 5 -22 3 -26 -8z"/>
<path d="M1873 1549 c-11 -11 -6 -49 7 -49 11 0 40 35 40 48 0 15 -32 16 -47
1z"/>
<path d="M1830 1504 c0 -8 5 -12 10 -9 6 4 8 11 5 16 -9 14 -15 11 -15 -7z"/>
<path d="M2036 75 c4 -8 11 -15 16 -15 6 0 5 6 -2 15 -7 8 -14 15 -16 15 -2 0
-1 -7 2 -15z"/>
</g>
</svg>
